<svg width="17" height="17" viewBox="0 0 17 17" fill="none" xmlns="http://www.w3.org/2000/svg">
<path d="M6.75002 0.899994C8.30154 0.899994 9.78951 1.51633 10.8866 2.61342C11.9837 3.71051 12.6 5.19848 12.6 6.74999C12.6 8.19899 12.069 9.53099 11.196 10.557L11.439 10.8H12.15L16.65 15.3L15.3 16.65L10.8 12.15V11.439L10.557 11.196C9.53102 12.069 8.19902 12.6 6.75002 12.6C5.19851 12.6 3.71054 11.9837 2.61345 10.8866C1.51636 9.78948 0.900024 8.30151 0.900024 6.74999C0.900024 5.19848 1.51636 3.71051 2.61345 2.61342C3.71054 1.51633 5.19851 0.899994 6.75002 0.899994ZM6.75002 2.69999C4.50002 2.69999 2.70002 4.49999 2.70002 6.74999C2.70002 8.99999 4.50002 10.8 6.75002 10.8C9.00002 10.8 10.8 8.99999 10.8 6.74999C10.8 4.49999 9.00002 2.69999 6.75002 2.69999Z" fill="#909597"/>
</svg>
